<svg class="exit-img" id="Calque_1" data-name="Calque 1" xmlns="http://www.w3.org/2000/svg" width="500" height="500.19" viewBox="0 0 500 500.19"><defs><style>.cls-1{fill:#054fd9;}</style></defs><title>exit_icon</title><path class="cls-1" d="M19.24,481h0a65.2,65.2,0,0,1,0-92.29L388.5,19.83a65.3,65.3,0,0,1,92.26,0h0a65.2,65.2,0,0,1,0,92.29L111.5,481A65.29,65.29,0,0,1,19.24,481Z" transform="translate(0 0.09)"/><path class="cls-1" d="M19.12,19h0a65.29,65.29,0,0,1,92.26,0L480.85,387.69a65.21,65.21,0,0,1,0,92.29h0a65.28,65.28,0,0,1-92.26,0L19.15,111.29A65.2,65.2,0,0,1,19.12,19Z" transform="translate(0 0.09)"/></svg>